<svg width="40" height="44" viewBox="0 0 40 44" fill="none" xmlns="http://www.w3.org/2000/svg">
<path d="M37.2264 23.2169C36.6543 23.0399 36.0468 23.0044 35.4574 23.1135C34.868 23.2226 34.3149 23.4729 33.8467 23.8425L33.7491 23.9181L28.0418 28.875C27.8635 28.4986 27.6285 28.1509 27.3449 27.8438C26.9761 27.4507 26.5317 27.1339 26.0376 26.912C25.5435 26.6901 25.0095 26.5675 24.4669 26.5512H24.3972L12.0906 26.1388C11.5193 26.1234 10.9508 26.2221 10.4191 26.4289C9.88743 26.6356 9.40356 26.9461 8.99651 27.3419L0 36.2313L1.97212 38.1769L10.9408 29.315C11.0767 29.1817 11.2391 29.0774 11.4178 29.0088C11.5964 28.9402 11.7875 28.9087 11.9791 28.9163L24.3554 29.3288H24.4042C24.742 29.3542 25.0579 29.5039 25.2892 29.7481C25.4083 29.8729 25.5011 30.0199 25.5621 30.1804C25.6231 30.3409 25.6511 30.5118 25.6446 30.6831C25.6048 30.894 25.5465 31.101 25.4704 31.3019C25.3578 31.5083 25.191 31.6811 24.9875 31.8021C24.784 31.923 24.5512 31.9877 24.3136 31.9894H24.2648L17.6446 31.7625L17.554 34.5125L24.0906 34.7325H24.1812C24.9095 34.7491 25.6296 34.5777 26.2701 34.2352C26.9106 33.8927 27.4492 33.3911 27.8327 32.78L35.554 26.0356C35.6671 25.9368 35.8041 25.8684 35.9518 25.8371C36.0995 25.8058 36.2529 25.8126 36.3972 25.8569C36.6278 25.9265 36.8309 26.0651 36.9782 26.2536C37.1255 26.442 37.2098 26.671 37.2195 26.9087C37.2158 27.0558 37.1826 27.2007 37.1219 27.335C37.0584 27.4289 36.9885 27.5185 36.9129 27.6031L26.1951 37.9912L12.3693 37.5238C11.7971 37.5057 11.2272 37.6038 10.695 37.8119C10.1628 38.0201 9.67954 38.3338 9.27525 38.7337L5.9094 42.0544L7.87456 44L11.2474 40.6794C11.3819 40.5457 11.5429 40.4406 11.7203 40.3709C11.8978 40.3011 12.0878 40.268 12.2787 40.2738L26.7038 40.755C26.8926 40.7616 27.0807 40.7302 27.2568 40.6628C27.4329 40.5955 27.5933 40.4935 27.7282 40.3631L38.9198 29.5006C38.956 29.4672 38.9886 29.4304 39.0174 29.3906C39.2212 29.1576 39.4031 28.9067 39.5609 28.6413C39.8388 28.1189 39.9891 27.5398 40 26.95C40.0037 26.1168 39.7363 25.3044 39.237 24.6324C38.7377 23.9604 38.0329 23.4642 37.2264 23.2169ZM5.36585 8.07812C4.42638 8.07723 3.52285 8.43427 2.84378 9.07475C2.16471 9.71523 1.76257 10.5897 1.72125 11.5156C1.70382 11.9905 1.7844 12.4639 1.9581 12.9071C2.1318 13.3503 2.39499 13.754 2.7317 14.0938C3.09063 14.4667 3.52303 14.7634 4.00237 14.9656C4.4817 15.1677 4.99786 15.2711 5.51916 15.2694H9.79093H8.74564C7.77903 15.2694 6.85201 15.6482 6.16852 16.3225C5.48502 16.9968 5.10104 17.9114 5.10104 18.865V21.3125H7.88849V18.8925C7.88849 18.7815 7.91066 18.6715 7.95374 18.5689C7.99681 18.4663 8.05995 18.3731 8.13955 18.2946C8.21914 18.216 8.31363 18.1537 8.41762 18.1112C8.52162 18.0687 8.63307 18.0469 8.74564 18.0469H11.3798C12.4783 19.1129 13.9574 19.7104 15.4982 19.7106H24.5017C26.0426 19.7104 27.5217 19.1129 28.6202 18.0469H31.2543C31.4817 18.0469 31.6997 18.136 31.8604 18.2946C32.0212 18.4531 32.1115 18.6682 32.1115 18.8925V21.3125H34.8989V18.8925C34.8989 17.9389 34.5149 17.0243 33.8314 16.35C33.1479 15.6757 32.2209 15.2969 31.2543 15.2969H30.223H34.6341C35.5736 15.2978 36.4771 14.9407 37.1562 14.3002C37.8352 13.6598 38.2374 12.7853 38.2787 11.8594V11.6875C38.2769 10.7765 37.9172 9.90166 37.2752 9.24687C36.9163 8.8739 36.4839 8.57722 36.0046 8.37506C35.5252 8.1729 35.0091 8.06951 34.4878 8.07125H29.7561V7.19125H30.6899C31.0595 7.19125 31.414 7.04638 31.6754 6.78852C31.9368 6.53066 32.0836 6.18092 32.0836 5.81625V2.75H36.878V0H24.5017V2.75H29.2961V4.44125H10.7038V2.75H15.4982V0H3.12195V2.75H7.91637V5.81625C7.91637 6.18092 8.06321 6.53066 8.32458 6.78852C8.58596 7.04638 8.94046 7.19125 9.31009 7.19125H10.2439V8.07812H5.36585ZM34.4947 10.8281C34.6356 10.8303 34.7746 10.8599 34.9038 10.9154C35.033 10.9708 35.1498 11.051 35.2474 11.1512C35.3228 11.2247 35.3821 11.3126 35.4217 11.4096C35.4612 11.5065 35.4802 11.6105 35.4773 11.715C35.4703 11.9224 35.383 12.1192 35.2334 12.265C35.1535 12.3456 35.0581 12.4096 34.9528 12.4533C34.8475 12.497 34.7344 12.5194 34.6202 12.5194H29.0035C28.6338 12.5194 28.2793 12.6642 28.0179 12.9221C27.7566 13.18 27.6097 13.5297 27.6097 13.8944C27.6097 14.7076 27.2823 15.4875 26.6994 16.0625C26.1165 16.6376 25.326 16.9606 24.5017 16.9606H15.4982C14.6739 16.9606 13.8834 16.6376 13.3005 16.0625C12.7177 15.4875 12.3902 14.7076 12.3902 13.8944C12.3902 13.5297 12.2434 13.18 11.982 12.9221C11.7206 12.6642 11.3661 12.5194 10.9965 12.5194H5.49825C5.35713 12.5188 5.21761 12.4899 5.08821 12.4343C4.95881 12.3787 4.84225 12.2977 4.74564 12.1962C4.66987 12.1231 4.61032 12.0352 4.57074 11.9382C4.53115 11.8411 4.5124 11.737 4.51567 11.6325C4.52408 11.4255 4.61115 11.2291 4.75958 11.0825C4.83945 11.0019 4.93485 10.9379 5.04016 10.8942C5.14547 10.8505 5.25858 10.8281 5.37282 10.8281H34.4947Z" fill="black"/>
</svg>
