<svg width="210" height="52" viewBox="0 0 210 52" fill="none" xmlns="http://www.w3.org/2000/svg">
<path d="M39.5105 18.4977C40.3427 19.5166 40.8321 20.6691 40.9788 21.9552C41.0722 22.7692 40.9152 23.5431 40.748 24.3273C40.6228 24.9103 40.356 25.4298 39.9466 25.8854C39.844 25.9998 39.8368 26.1169 39.9261 26.2369C39.9456 26.2629 39.9538 26.2921 39.9517 26.3242C39.9507 26.3352 39.9497 26.3458 39.9487 26.3561C39.9425 26.3952 39.9589 26.416 39.9989 26.4188C40.0246 26.4201 40.0502 26.4277 40.0759 26.4414C39.1976 26.9889 38.2588 27.3863 37.2604 27.6336C37.0901 27.6761 37.0607 27.6292 37.1722 27.4928C37.2679 27.3764 37.3668 27.2616 37.4687 27.1485C38.0977 26.4496 38.582 25.2718 38.306 24.3191C38.0997 23.6089 37.795 23.0806 37.2963 22.4475C36.9626 22.0247 36.6366 21.6132 36.3185 21.2131C36.0343 20.8565 35.8127 20.468 35.7162 20.062C35.6342 19.7159 35.536 19.7112 35.4218 20.0476C35.2733 20.4847 35.026 20.9014 34.6799 21.2974C34.2346 21.8079 33.8362 22.2895 33.4846 22.7424C32.9969 23.3714 32.7376 24.0264 32.7069 24.7076C32.6891 25.1043 32.7589 25.5544 32.9162 26.0581C33.0639 26.5274 33.3413 26.9618 33.7483 27.3613C33.9091 27.5188 33.8796 27.574 33.6601 27.5267C32.4432 27.2626 31.2653 26.8042 30.2536 26.0642C30.3261 26.0354 30.3733 25.9971 30.3952 25.9491C30.4047 25.9278 30.417 25.9087 30.4321 25.8916L30.8528 25.4075C30.8887 25.3661 30.9108 25.3146 30.9159 25.2601C30.921 25.2057 30.909 25.1512 30.8815 25.1043C30.2502 24.0197 30.0214 22.873 30.1951 21.6643C30.3839 20.3539 31.1175 18.951 32.0882 17.9633C32.4965 17.5481 32.9138 17.1181 33.3399 16.6734C33.8434 16.1794 34.3263 15.632 34.7887 15.031C35.0521 14.6891 35.2368 14.3661 35.3428 14.0618C35.4084 13.8727 35.4662 13.6877 35.5162 13.5068C35.5764 13.2903 35.6297 13.292 35.6762 13.512C35.7706 13.9532 35.9413 14.3496 36.1882 14.7011C36.7806 15.5459 37.4906 16.3489 38.3183 17.1102C38.5994 17.3692 38.9965 17.8317 39.5105 18.4977Z" fill="#E33230"/>
<path d="M45.0881 18.1542C45.0409 18.144 44.9948 18.1515 44.9496 18.1769C44.9363 18.1837 44.926 18.1807 44.9188 18.1676C44.9137 18.1573 44.9034 18.1522 44.8901 18.1522C44.6428 18.157 44.4079 18.1694 44.1862 18.1892C43.9287 18.2118 43.6958 18.2231 43.4854 18.2231C43.2484 18.2231 43.0309 18.2162 42.8349 18.2025C42.6708 18.1909 42.4963 18.2094 42.3106 18.258C41.9997 18.3403 41.696 18.3721 41.3974 18.3536C41.2487 18.3447 41.0968 18.3574 40.9439 18.3917C40.6197 18.4649 40.3037 18.4931 39.9969 18.4759C39.9333 18.4718 39.884 18.4431 39.8348 18.406C39.804 18.3834 39.7732 18.3837 39.7435 18.4071C39.6747 18.4605 39.5978 18.4906 39.5106 18.4975C38.9965 17.8315 38.5994 17.369 38.3183 17.11C37.4906 16.3487 36.7806 15.5457 36.1882 14.7009C35.9413 14.3494 35.7706 13.953 35.6762 13.5118C35.6298 13.2918 35.5764 13.2901 35.5162 13.5066C35.4662 13.6875 35.4084 13.8725 35.3428 14.0616C35.2368 14.3659 35.0521 14.6889 34.7887 15.0308C34.3263 15.6318 33.8434 16.1792 33.3399 16.6732C33.1676 16.702 33.0441 16.6996 32.9695 16.666C32.9395 16.6523 32.9077 16.6452 32.8741 16.6444C32.5089 16.6424 32.2219 16.6595 32.0133 16.6958C31.9702 16.7033 31.9524 16.7297 31.9599 16.775C31.9661 16.8106 31.9514 16.8305 31.9158 16.8346C31.4787 16.8846 31.0136 16.9199 30.5204 16.9404C30.4219 16.9445 30.3309 16.9695 30.2475 17.0155C30.2344 17.0224 30.2269 17.0182 30.2249 17.0031C30.2228 16.9846 30.2123 16.9754 30.1931 16.9754C29.6664 16.9877 29.127 16.999 28.575 17.0093C28.3055 17.0141 28.0404 17.0075 27.7798 16.9898C27.5267 16.9726 27.2606 16.9538 26.9816 16.9332C26.97 16.9325 26.9607 16.9274 26.9539 16.9178C26.9484 16.9096 26.9453 16.9011 26.9446 16.8921C26.9433 16.8503 26.9228 16.8233 26.8831 16.8109C26.5527 16.7089 26.2349 16.7328 25.9299 16.8829C25.9579 16.2107 26.0086 15.6688 26.0817 15.2569C26.1789 14.7102 26.327 14.1086 26.526 13.4522C27.1943 11.2432 28.2716 9.26222 29.758 7.50955C29.873 7.37388 30.0046 7.25435 30.1531 7.15085C30.1645 7.14263 30.1778 7.13759 30.1917 7.13636C30.2058 7.13513 30.2199 7.1377 30.2326 7.14376C30.2453 7.14983 30.2563 7.15918 30.2643 7.17089C30.2723 7.18261 30.2771 7.19628 30.2782 7.21046C30.3179 7.72918 30.3508 8.24204 30.3767 8.74905C30.4065 9.31021 30.5563 9.88063 30.7071 10.413C30.9479 11.2627 31.3573 12.0814 31.9353 12.8694C32.1228 13.125 32.3337 13.348 32.5684 13.5385C32.6471 13.6022 32.7079 13.5881 32.751 13.4964C32.8919 13.1935 33.0688 12.9092 33.2815 12.6433C33.3074 12.6104 33.3089 12.5768 33.2856 12.5426C32.5804 11.4799 32.1299 10.3188 31.9343 9.05944C31.8337 8.41327 31.8416 7.74213 31.9579 7.04602C32.2616 5.2361 33.2137 3.86402 34.3106 2.31105C34.6061 1.89243 34.9378 1.31338 35.3058 0.574102C35.4002 0.383963 35.4577 0.193824 35.5706 0.0180735C35.5747 0.0119068 35.5804 0.00707623 35.5872 0.00389011C35.5939 0.000806781 35.6012 -0.000528866 35.6086 0.000190579C35.616 0.0010128 35.623 0.0036846 35.6289 0.00810404C35.6349 0.0125235 35.6395 0.0184854 35.6424 0.0252687C35.8702 0.594658 36.1123 1.19385 36.4591 1.70055C36.8031 2.20282 37.1599 2.71835 37.5293 3.24735C38.0762 4.03052 38.5225 4.85654 38.8662 5.72532C39.0919 6.29471 39.2315 6.95044 39.3136 7.55991C39.3751 8.01521 39.3546 8.51369 39.2664 8.97516C39.1494 9.59183 38.9893 10.1872 38.7862 10.7614C38.5789 11.3504 38.2824 11.8838 37.9623 12.4223C37.9428 12.4542 37.9335 12.4907 37.9335 12.5278C37.9335 12.565 37.9438 12.6014 37.9633 12.633C38.1603 12.9524 38.3973 13.2319 38.6733 13.4717C38.7072 13.5005 38.7369 13.4977 38.7646 13.4635C39.7424 12.2425 40.3694 10.8827 40.6464 9.38421C40.7757 8.68019 40.749 7.96794 40.7644 7.26185C40.7644 7.24901 40.7675 7.23647 40.7736 7.22516C40.7798 7.21375 40.788 7.20399 40.7982 7.19649C40.8085 7.18898 40.8208 7.18405 40.8331 7.18199C40.8465 7.17994 40.8588 7.18097 40.8711 7.18477C40.9583 7.21077 41.0322 7.25538 41.0937 7.31838C41.4867 7.71993 41.854 8.1666 42.1937 8.6586C43.0914 9.95432 43.8107 11.3329 44.3514 12.7944C44.8285 14.0804 45.0933 15.4494 45.1476 16.9014C45.163 17.3207 45.1435 17.7383 45.0881 18.1542Z" fill="url(#paint0_linear_62_1639)" fill-opacity="0.988"/>
<path d="M33.3399 16.6732C32.9138 17.1179 32.4965 17.5479 32.0882 17.9631C31.1175 18.9508 30.3839 20.3537 30.1951 21.6641C30.0214 22.8728 30.2502 24.0195 30.8815 25.1041C30.909 25.1511 30.921 25.2055 30.9159 25.2599C30.9108 25.3144 30.8887 25.3659 30.8528 25.4073L30.4321 25.8914C30.4171 25.9085 30.4047 25.9276 30.3952 25.9489C30.3733 25.9969 30.3261 26.0353 30.2536 26.064C28.6927 24.9759 27.54 23.5432 26.7958 21.7659C26.1378 20.1961 25.8491 18.5685 25.9299 16.8829C26.2349 16.7328 26.5527 16.7089 26.8831 16.811C26.9228 16.8233 26.9433 16.8503 26.9446 16.8921C26.9453 16.9011 26.9484 16.9096 26.9539 16.9178C26.9607 16.9274 26.97 16.9325 26.9816 16.9333C27.2606 16.9538 27.5267 16.9726 27.7798 16.9898C28.0404 17.0076 28.3055 17.0141 28.575 17.0093C29.127 16.999 29.6664 16.9877 30.1931 16.9754C30.2123 16.9754 30.2228 16.9846 30.2249 17.0031C30.2269 17.0183 30.2344 17.0224 30.2474 17.0155C30.3309 16.9695 30.4219 16.9446 30.5204 16.9405C31.0136 16.9199 31.4787 16.8846 31.9158 16.8346C31.9514 16.8305 31.9661 16.8106 31.9599 16.775C31.9524 16.7298 31.9702 16.7033 32.0133 16.6958C32.2219 16.6596 32.5088 16.6424 32.8741 16.6445C32.9077 16.6452 32.9395 16.6524 32.9695 16.666C33.0441 16.6996 33.1676 16.702 33.3399 16.6732Z" fill="url(#paint1_linear_62_1639)" fill-opacity="0.988"/>
<path d="M45.0881 18.1544C45.0953 18.3592 45.0789 18.6176 45.0378 18.9293C44.8357 20.4751 44.3586 21.8523 43.4947 23.1524C42.6051 24.4927 41.4652 25.589 40.0759 26.4413C40.0503 26.4277 40.0246 26.4201 39.999 26.4187C39.9589 26.4159 39.9425 26.3951 39.9487 26.356C39.9497 26.3457 39.9507 26.3352 39.9518 26.3242C39.9538 26.292 39.9456 26.2628 39.9261 26.2368C39.8368 26.1169 39.844 25.9997 39.9466 25.8853C40.356 25.4297 40.6228 24.9102 40.748 24.3272C40.9152 23.543 41.0722 22.7691 40.9788 21.9551C40.8321 20.669 40.3427 19.5165 39.5106 18.4976C39.5978 18.4907 39.6747 18.4606 39.7435 18.4072C39.7732 18.3839 39.804 18.3836 39.8348 18.4062C39.884 18.4432 39.9333 18.4719 39.9969 18.4761C40.3037 18.4932 40.6197 18.4651 40.9439 18.3918C41.0968 18.3575 41.2487 18.3448 41.3974 18.3537C41.696 18.3722 41.9997 18.3404 42.3106 18.2582C42.4963 18.2095 42.6708 18.191 42.8349 18.2027C43.0309 18.2163 43.2484 18.2232 43.4854 18.2232C43.6958 18.2232 43.9287 18.2119 44.1862 18.1893C44.4079 18.1695 44.6428 18.1571 44.8901 18.1523C44.9034 18.1523 44.9137 18.1574 44.9188 18.1677C44.926 18.1808 44.9363 18.1839 44.9496 18.177C44.9947 18.1516 45.0409 18.1441 45.0881 18.1544Z" fill="url(#paint2_linear_62_1639)" fill-opacity="0.988"/>
<path d="M17.5424 30.7418C17.6342 30.5508 17.7186 30.3566 17.7954 30.1594C17.9986 29.6383 19.3482 29.8022 19.8186 29.8776C20.2629 29.9483 20.5183 30.3633 20.4934 30.7877C20.4902 30.831 20.5104 30.8534 20.554 30.8549C21.4854 30.895 22.3894 30.6946 23.3196 30.7028C23.7425 30.706 24.1405 30.6843 24.5135 30.638C25.3891 30.5284 26.2718 30.5425 27.1687 30.5248C27.2135 30.5233 27.2578 30.53 27.2994 30.5449C27.4998 30.6148 27.5996 30.7028 27.5988 30.8089C27.5964 30.9206 27.5394 30.9802 27.4277 30.9881C27.0127 31.0164 26.5637 31.0644 26.0805 31.132C25.6635 31.1909 25.2394 31.1591 24.8236 31.2204C23.9694 31.3489 23.1177 31.3277 22.2516 31.4314C21.6972 31.4966 21.1352 31.5175 20.5658 31.4939C20.4832 31.4902 20.4011 31.5093 20.3286 31.5491C20.2561 31.5888 20.1959 31.6476 20.1548 31.7191L20.0633 31.8782C19.9739 32.0347 20.019 32.1219 20.1987 32.1399C20.4732 32.1671 20.8011 32.101 21.0375 32.2519C21.3665 32.4606 21.2893 32.964 21.2953 33.2976C21.2968 33.3542 21.3258 33.3829 21.382 33.3837C23.7342 33.4135 26.0175 33.3876 28.232 33.3059C28.5266 33.2941 28.9412 33.7562 29.136 33.9508C30.0666 34.8829 30.9699 35.661 31.8459 36.285C31.9896 36.3876 32.1619 36.344 32.2902 36.2461C33.3689 35.4244 34.4784 34.9104 35.8743 34.9705C37.155 35.0248 37.9783 35.5223 38.9429 36.2744C38.9976 36.3167 39.0641 36.34 39.133 36.3405C39.2031 36.3413 39.2696 36.3192 39.3255 36.2779C40.4398 35.4472 41.4864 34.5375 42.4653 33.5488C42.5627 33.4497 42.7231 33.3967 42.8609 33.3896C43.9444 33.3322 44.7843 33.3138 45.3795 33.3342C47.0629 33.3916 48.6643 33.4218 50.1849 33.425C50.2027 33.4248 50.2194 33.4212 50.236 33.4141C50.2514 33.4069 50.2669 33.3967 50.2776 33.3838C50.2895 33.3709 50.299 33.3558 50.3037 33.3393C50.3097 33.3228 50.312 33.3054 50.3097 33.2882C50.28 33.0037 50.2942 32.7184 50.3548 32.4323C50.3714 32.3542 50.4142 32.284 50.4772 32.2338C50.5389 32.1834 50.6174 32.1562 50.6969 32.1565C50.8585 32.1565 51.0236 32.1408 51.1935 32.1093C51.38 32.0748 51.424 31.9773 51.3254 31.8169L51.2672 31.7226C51.1745 31.5709 51.0391 31.4971 50.8597 31.501C50.1802 31.5159 49.5125 31.4912 48.8567 31.4267C48.0299 31.3454 47.209 31.3324 46.3952 31.2369C45.5672 31.139 44.6299 31.2074 43.7816 30.9988C43.6474 30.9657 43.6082 30.8824 43.664 30.7488C43.6854 30.6966 43.7222 30.6516 43.7686 30.6188C43.8149 30.586 43.8695 30.5669 43.9266 30.5637C44.1238 30.5535 44.3281 30.5582 44.5408 30.5779C45.2143 30.64 46.2622 30.6879 47.6866 30.7217C48.6215 30.7441 49.6812 30.8997 50.735 30.8526C50.7813 30.8502 50.8181 30.8293 50.8443 30.7901C50.9642 30.6062 51.051 30.4128 51.1044 30.2101C51.1317 30.1048 51.1864 30.0135 51.2684 29.9366C51.2981 29.9083 51.3325 29.8918 51.3741 29.887C51.9289 29.8226 52.5348 29.8284 53.1894 29.9047C53.6301 29.9566 53.7917 30.4364 53.8855 30.7924C53.895 30.827 53.9164 30.8388 53.9509 30.8278C54.1873 30.7555 54.3286 30.6262 54.3762 30.44C54.388 30.396 54.4165 30.3731 54.4629 30.3716C55.6034 30.3232 56.6916 30.2254 57.8368 30.216C58.4439 30.2104 59.0426 30.1861 59.6318 30.1429C60.8602 30.0533 62.1124 30.0875 63.3728 29.9955C65.276 29.8576 67.1851 29.9153 69.0907 29.7927C69.6977 29.7542 70.2917 29.7358 70.8703 29.7373C70.8881 29.7374 70.9047 29.7411 70.9214 29.7479C70.9368 29.7549 70.9511 29.7648 70.9641 29.7774C70.976 29.7899 70.9855 29.8047 70.9914 29.8209C70.9974 29.8372 71.001 29.8544 70.9998 29.8717C70.9546 31.0801 69.5849 30.9716 68.764 31.0942C68.2472 31.1721 67.7245 31.1768 67.2029 31.2381C66.9202 31.2719 66.6268 31.3041 66.3226 31.3347C64.5632 31.5124 62.6624 31.7124 60.6191 31.9348C60.0548 31.9961 59.5618 32.0837 59.1412 32.1977C58.6826 32.3219 58.2086 32.4426 57.7192 32.5596C56.789 32.7836 56.2104 32.4241 55.5071 31.9242C54.9999 31.5646 54.3156 31.4644 53.7073 31.5092C53.5267 31.5225 53.4056 31.6138 53.345 31.7827C53.3331 31.8149 53.3295 31.8484 53.3343 31.8829C53.3569 32.037 53.446 32.1164 53.6028 32.1211L54.495 32.1517C54.5294 32.1527 54.5615 32.1668 54.5841 32.191C54.6078 32.2153 54.6209 32.2477 54.6209 32.2814C54.6173 33.3519 54.6149 34.4762 54.6114 35.6543C54.6102 35.9081 54.552 36.1302 54.4356 36.3204C54.2336 36.652 53.8772 36.8536 53.3676 36.9252C52.7557 37.0109 52.1891 37.0218 51.6675 36.9582C51.3028 36.9134 50.9654 36.7433 50.6577 36.4477C50.4546 36.252 50.3619 35.9915 50.337 35.7203C50.3358 35.7043 50.3275 35.6895 50.3156 35.6785C50.3049 35.6674 50.2895 35.6609 50.2728 35.6602C48.1701 35.5974 46.1327 35.5883 44.1618 35.6331C43.9872 35.637 43.8363 35.7038 43.7068 35.8335C42.8966 36.6501 42.1576 37.3794 41.49 38.0216C41.3082 38.196 41.0979 38.3513 40.8592 38.4872C40.618 38.624 40.3519 38.6228 40.0834 38.6546C40.0276 38.6609 40.0014 38.6915 40.005 38.7466C40.0561 39.8226 39.8696 40.7354 39.4454 41.4852C38.8431 42.5525 37.9129 43.2693 36.6549 43.6356C36.3848 43.7149 35.965 43.7464 35.3956 43.7299C33.5245 43.6745 32.0656 42.406 31.3421 40.7625C31.2138 40.4717 31.1489 40.1704 31.1473 39.8583C31.1458 39.5156 31.1327 39.1804 31.1081 38.8527C31.0938 38.6523 30.9275 38.5191 30.7232 38.5698C30.5771 38.6063 30.4535 38.5757 30.3395 38.4778C29.5293 37.7878 28.7345 37.0521 27.9552 36.2709C27.7199 36.0351 27.278 35.593 26.9264 35.5883C25.3669 35.5671 23.8534 35.5403 22.3859 35.5081C22.1498 35.5026 21.9106 35.5261 21.6683 35.5788C21.4711 35.6213 21.2854 35.6115 21.1111 35.5494C21.0541 35.529 21.0205 35.5485 21.0102 35.6083C20.9317 36.087 20.6458 36.5058 20.1524 36.865C19.8424 37.0914 18.5284 36.9853 18.0544 36.9629C17.8184 36.9511 17.5931 36.878 17.3785 36.7436C16.9238 36.4568 16.6998 36.0147 16.706 35.4173C16.7179 34.2942 16.7456 33.2823 16.7892 32.3816C16.7955 32.241 16.8696 32.1659 17.0114 32.1565C17.3662 32.1329 17.7036 32.083 18.0235 32.0067C18.0329 32.0044 18.0417 31.9997 18.0488 31.9932C18.0561 31.9867 18.0616 31.9786 18.0648 31.9695C18.068 31.9605 18.0688 31.9508 18.0671 31.9415C18.0656 31.9321 18.0615 31.9234 18.0556 31.916L17.7788 31.5611C17.7666 31.5453 17.7508 31.5326 17.7327 31.5238C17.7145 31.515 17.6946 31.5104 17.6743 31.5104C17.2965 31.5096 16.8898 31.5458 16.4542 31.6189C15.6963 31.745 15.208 32.6481 14.3811 32.6363C13.7289 32.6268 13.0981 32.4488 12.4732 32.2885C12.1263 32.1989 11.7624 32.132 11.3815 32.0881C10.4699 31.9835 9.55159 31.8809 8.6265 31.7804C8.42371 31.7583 8.19727 31.727 7.94696 31.6861C7.61432 31.6307 7.27575 31.6531 6.93598 31.5859C6.43821 31.4868 5.925 31.4951 5.40941 31.4267C4.61583 31.3221 3.77473 31.229 2.88611 31.1473C2.40378 31.1033 1.91789 31.0467 1.42844 30.9775C0.826122 30.8938 0.0765028 30.4812 0.000471113 29.8375C-0.000716882 29.8268 0.000352429 29.8159 0.00356001 29.8057C0.0067676 29.7954 0.0121114 29.786 0.0191205 29.7779C0.0261297 29.7699 0.0348036 29.7633 0.0444263 29.7588C0.0541679 29.7542 0.0646234 29.7517 0.0753153 29.7515C1.25701 29.7185 2.38442 29.7326 3.45753 29.7939C5.35238 29.9012 7.21872 29.8764 8.98883 29.9861C9.68345 30.03 10.3856 30.0592 11.0951 30.0733C12.0301 30.0922 12.9948 30.216 13.9321 30.216C14.7732 30.2151 15.5834 30.2352 16.3627 30.2761C16.75 30.2961 17.1028 30.618 17.4485 30.7759C17.4913 30.7956 17.5226 30.7842 17.5424 30.7418ZM35.5608 41.8197C36.1515 41.8299 36.7222 41.5983 37.1474 41.1758C37.5727 40.7533 37.8175 40.1745 37.8282 39.5668C37.8389 38.959 37.6145 38.3722 37.2044 37.9351C36.7943 37.4982 36.232 37.247 35.6414 37.2368C35.0507 37.2265 34.48 37.4582 34.0548 37.8807C33.6295 38.3031 33.3847 38.8819 33.374 39.4897C33.3633 40.0974 33.5877 40.6843 33.9978 41.1213C34.4079 41.5582 34.9702 41.8094 35.5608 41.8197Z" fill="white"/>
<path d="M77.9815 42.7341V16.5523H95.8537V21.6915H84.3097V27.0608H94.7159V32.2128H84.3097V42.7341H77.9815ZM99.2552 42.7341V23.0978H105.507V42.7341H99.2552ZM102.387 20.8094C101.509 20.8094 100.755 20.5196 100.125 19.9401C99.4939 19.352 99.1785 18.6446 99.1785 17.8179C99.1785 16.9998 99.4939 16.3009 100.125 15.7213C100.755 15.1333 101.509 14.8392 102.387 14.8392C103.274 14.8392 104.028 15.1333 104.65 15.7213C105.281 16.3009 105.596 16.9998 105.596 17.8179C105.596 18.6446 105.281 19.352 104.65 19.9401C104.028 20.5196 103.274 20.8094 102.387 20.8094ZM109.701 42.7341V23.0978H115.773V26.6773H115.978C116.336 25.3819 116.92 24.4188 117.729 23.7881C118.539 23.1489 119.481 22.8293 120.555 22.8293C120.844 22.8293 121.143 22.8506 121.449 22.8932C121.756 22.9273 122.042 22.9827 122.306 23.0594V28.4927C122.008 28.3904 121.616 28.3094 121.13 28.2498C120.653 28.1901 120.226 28.1603 119.851 28.1603C119.11 28.1603 118.441 28.3265 117.844 28.6588C117.256 28.9827 116.792 29.4387 116.451 30.0267C116.118 30.6063 115.952 31.2881 115.952 32.0722V42.7341H109.701ZM133.228 43.1049C131.174 43.1049 129.401 42.7 127.91 41.8904C126.427 41.0722 125.285 39.9088 124.483 38.4003C123.691 36.8833 123.294 35.0807 123.294 32.9927C123.294 30.9642 123.695 29.1915 124.496 27.6745C125.297 26.1489 126.427 24.9642 127.884 24.1205C129.341 23.2682 131.059 22.8421 133.036 22.8421C134.434 22.8421 135.712 23.0594 136.871 23.4941C138.03 23.9287 139.032 24.5722 139.875 25.4245C140.719 26.2767 141.375 27.3293 141.844 28.5821C142.313 29.8265 142.547 31.254 142.547 32.8648V34.4245H125.481V30.7938H136.731C136.722 30.129 136.564 29.5367 136.258 29.0168C135.951 28.4969 135.529 28.0921 134.992 27.8023C134.464 27.504 133.854 27.3549 133.164 27.3549C132.465 27.3549 131.839 27.5125 131.285 27.8279C130.731 28.1347 130.292 28.5566 129.968 29.0935C129.644 29.6219 129.473 30.2228 129.456 30.8961V34.5907C129.456 35.3918 129.614 36.0949 129.929 36.7C130.245 37.2966 130.692 37.7611 131.272 38.0935C131.851 38.4259 132.542 38.5921 133.343 38.5921C133.897 38.5921 134.4 38.5154 134.851 38.362C135.303 38.2086 135.691 37.9827 136.015 37.6844C136.339 37.3861 136.581 37.0196 136.743 36.585L142.483 36.7512C142.245 38.0381 141.721 39.1588 140.911 40.1134C140.11 41.0594 139.057 41.7966 137.753 42.325C136.449 42.8449 134.941 43.1049 133.228 43.1049ZM145.955 42.7341V16.5523H164.211V21.6915H152.283V27.0608H163.278V32.2128H152.283V37.5949H164.211V42.7341H145.955ZM172.212 50.0978C171.462 50.0978 170.754 50.0381 170.089 49.9188C169.425 49.808 168.854 49.6588 168.376 49.4713L169.757 44.933C170.371 45.1375 170.925 45.2569 171.419 45.2909C171.922 45.325 172.352 45.2441 172.71 45.0481C173.077 44.8606 173.358 44.5239 173.554 44.0381L173.797 43.45L166.817 23.0978H173.362L176.98 37.1091H177.185L180.854 23.0978H187.437L180.035 44.6134C179.677 45.6873 179.17 46.6333 178.514 47.4515C177.866 48.2782 177.027 48.9259 175.996 49.3946C174.973 49.8634 173.712 50.0978 172.212 50.0978ZM198.596 43.1049C196.542 43.1049 194.769 42.7 193.278 41.8904C191.795 41.0722 190.653 39.9088 189.851 38.4003C189.059 36.8833 188.662 35.0807 188.662 32.9927C188.662 30.9642 189.063 29.1915 189.864 27.6745C190.665 26.1489 191.795 24.9642 193.252 24.1205C194.709 23.2682 196.427 22.8421 198.404 22.8421C199.802 22.8421 201.08 23.0594 202.239 23.4941C203.398 23.9287 204.4 24.5722 205.243 25.4245C206.087 26.2767 206.743 27.3293 207.212 28.5821C207.681 29.8265 207.915 31.254 207.915 32.8648V34.4245H190.849V30.7938H202.099C202.09 30.129 201.932 29.5367 201.626 29.0168C201.319 28.4969 200.897 28.0921 200.36 27.8023C199.832 27.504 199.222 27.3549 198.532 27.3549C197.833 27.3549 197.207 27.5125 196.653 27.8279C196.099 28.1347 195.66 28.5566 195.336 29.0935C195.012 29.6219 194.841 30.2228 194.824 30.8961V34.5907C194.824 35.3918 194.982 36.0949 195.297 36.7C195.613 37.2966 196.06 37.7611 196.64 38.0935C197.219 38.4259 197.91 38.5921 198.711 38.5921C199.265 38.5921 199.768 38.5154 200.219 38.362C200.671 38.2086 201.059 37.9827 201.383 37.6844C201.707 37.3861 201.949 37.0196 202.111 36.585L207.851 36.7512C207.613 38.0381 207.089 39.1588 206.279 40.1134C205.478 41.0594 204.425 41.7966 203.121 42.325C201.817 42.8449 200.309 43.1049 198.596 43.1049Z" fill="white"/>
<defs>
<linearGradient id="paint0_linear_62_1639" x1="35.5348" y1="8.77623e-05" x2="35.5348" y2="26.4412" gradientUnits="userSpaceOnUse">
<stop offset="0.32" stop-color="#FAC110"/>
<stop offset="0.78" stop-color="#EE5D28"/>
<stop offset="1" stop-color="#EC502B"/>
</linearGradient>
<linearGradient id="paint1_linear_62_1639" x1="35.5347" y1="0.000107026" x2="35.5347" y2="26.4412" gradientUnits="userSpaceOnUse">
<stop offset="0.32" stop-color="#FAC110"/>
<stop offset="0.78" stop-color="#EE5D28"/>
<stop offset="1" stop-color="#EC502B"/>
</linearGradient>
<linearGradient id="paint2_linear_62_1639" x1="35.5348" y1="0.000201549" x2="35.5348" y2="26.4413" gradientUnits="userSpaceOnUse">
<stop offset="0.32" stop-color="#FAC110"/>
<stop offset="0.78" stop-color="#EE5D28"/>
<stop offset="1" stop-color="#EC502B"/>
</linearGradient>
</defs>
</svg>
