<svg width="233" height="43" viewBox="0 0 233 43" fill="none" xmlns="http://www.w3.org/2000/svg">
<path d="M34.6356 18.4977C35.4677 19.5166 35.9571 20.6691 36.1038 21.9552C36.1972 22.7692 36.0402 23.5431 35.873 24.3273C35.7478 24.9103 35.481 25.4298 35.0716 25.8854C34.969 25.9998 34.9619 26.1169 35.0511 26.2369C35.0706 26.2629 35.0788 26.2921 35.0768 26.3242C35.0757 26.3352 35.0747 26.3458 35.0737 26.3561C35.0675 26.3952 35.084 26.416 35.124 26.4188C35.1496 26.4201 35.1753 26.4277 35.2009 26.4414C34.3226 26.9889 33.3838 27.3863 32.3855 27.6336C32.2151 27.6761 32.1857 27.6292 32.2972 27.4928C32.393 27.3764 32.4919 27.2616 32.5938 27.1485C33.2227 26.4496 33.707 25.2718 33.431 24.3191C33.2248 23.6089 32.92 23.0806 32.4214 22.4475C32.0876 22.0247 31.7616 21.6132 31.4436 21.2131C31.1593 20.8565 30.9377 20.468 30.8413 20.062C30.7592 19.7159 30.661 19.7112 30.5468 20.0476C30.3983 20.4847 30.1511 20.9014 29.805 21.2974C29.3597 21.8079 28.9613 22.2895 28.6096 22.7424C28.122 23.3714 27.8627 24.0264 27.8319 24.7076C27.8141 25.1043 27.8839 25.5544 28.0412 26.0581C28.189 26.5274 28.4663 26.9618 28.8733 27.3613C29.0341 27.5188 29.0047 27.574 28.7851 27.5267C27.5682 27.2626 26.3903 26.8042 25.3786 26.0642C25.4512 26.0354 25.4984 25.9971 25.5202 25.9491C25.5298 25.9278 25.5421 25.9087 25.5572 25.8916L25.9778 25.4075C26.0137 25.3661 26.0358 25.3146 26.0409 25.2601C26.0461 25.2057 26.0341 25.1512 26.0066 25.1043C25.3752 24.0197 25.1464 22.873 25.3201 21.6643C25.5089 20.3539 26.2426 18.951 27.2132 17.9633C27.6216 17.5481 28.0388 17.1181 28.465 16.6734C28.9684 16.1794 29.4513 15.632 29.9137 15.031C30.1771 14.6891 30.3618 14.3661 30.4678 14.0618C30.5335 13.8727 30.5912 13.6877 30.6412 13.5068C30.7014 13.2903 30.7548 13.292 30.8013 13.512C30.8957 13.9532 31.0663 14.3496 31.3133 14.7011C31.9056 15.5459 32.6156 16.3489 33.4433 17.1102C33.7245 17.3692 34.1215 17.8317 34.6356 18.4977Z" fill="#E33230"/>
<path d="M40.2132 18.1542C40.166 18.144 40.1198 18.1515 40.0747 18.1769C40.0613 18.1837 40.0511 18.1807 40.0439 18.1676C40.0388 18.1573 40.0285 18.1522 40.0152 18.1522C39.7679 18.157 39.5329 18.1694 39.3113 18.1892C39.0538 18.2118 38.8208 18.2231 38.6105 18.2231C38.3735 18.2231 38.156 18.2162 37.96 18.2025C37.7958 18.1909 37.6214 18.2094 37.4357 18.258C37.1248 18.3403 36.8211 18.3721 36.5225 18.3536C36.3737 18.3447 36.2219 18.3574 36.069 18.3917C35.7448 18.4649 35.4288 18.4931 35.122 18.4759C35.0584 18.4718 35.0091 18.4431 34.9599 18.406C34.9291 18.3834 34.8983 18.3837 34.8685 18.4071C34.7998 18.4605 34.7228 18.4906 34.6356 18.4975C34.1216 17.8315 33.7245 17.369 33.4434 17.11C32.6157 16.3487 31.9056 15.5457 31.3133 14.7009C31.0663 14.3494 30.8957 13.953 30.8013 13.5118C30.7548 13.2918 30.7015 13.2901 30.6412 13.5066C30.5913 13.6875 30.5335 13.8725 30.4678 14.0616C30.3619 14.3659 30.1772 14.6889 29.9138 15.0308C29.4513 15.6318 28.9685 16.1792 28.465 16.6732C28.2926 16.702 28.1692 16.6996 28.0946 16.666C28.0645 16.6523 28.0327 16.6452 27.9992 16.6444C27.6339 16.6424 27.3469 16.6595 27.1383 16.6958C27.0952 16.7033 27.0775 16.7297 27.085 16.775C27.0911 16.8106 27.0765 16.8305 27.0409 16.8346C26.6038 16.8846 26.1387 16.9199 25.6454 16.9404C25.5469 16.9445 25.4559 16.9695 25.3725 17.0155C25.3595 17.0224 25.352 17.0182 25.3499 17.0031C25.3479 16.9846 25.3373 16.9754 25.3181 16.9754C24.7915 16.9877 24.2521 16.999 23.7001 17.0093C23.4305 17.0141 23.1655 17.0075 22.9049 16.9898C22.6518 16.9726 22.3857 16.9538 22.1066 16.9332C22.095 16.9325 22.0858 16.9274 22.0789 16.9178C22.0735 16.9096 22.0704 16.9011 22.0697 16.8921C22.0684 16.8503 22.0478 16.8233 22.0081 16.8109C21.6777 16.7089 21.36 16.7328 21.0549 16.8829C21.0829 16.2107 21.1336 15.6688 21.2068 15.2569C21.304 14.7102 21.452 14.1086 21.6511 13.4522C22.3193 11.2432 23.3967 9.26222 24.8831 7.50955C24.998 7.37388 25.1297 7.25435 25.2781 7.15085C25.2895 7.14263 25.3029 7.13759 25.3168 7.13636C25.3309 7.13513 25.3449 7.1377 25.3576 7.14376C25.3704 7.14983 25.3813 7.15918 25.3893 7.17089C25.3973 7.18261 25.4022 7.19628 25.4033 7.21046C25.443 7.72918 25.4758 8.24204 25.5018 8.74905C25.5316 9.31021 25.6814 9.88063 25.8322 10.413C26.073 11.2627 26.4824 12.0814 27.0604 12.8694C27.2478 13.125 27.4588 13.348 27.6934 13.5385C27.7721 13.6022 27.833 13.5881 27.8761 13.4964C28.0169 13.1935 28.1938 12.9092 28.4065 12.6433C28.4325 12.6104 28.4339 12.5768 28.4106 12.5426C27.7054 11.4799 27.255 10.3188 27.0593 9.05944C26.9588 8.41327 26.9667 7.74213 27.0829 7.04602C27.3866 5.2361 28.3388 3.86402 29.4356 2.31105C29.7311 1.89243 30.0629 1.31338 30.4309 0.574102C30.5253 0.383963 30.5828 0.193824 30.6956 0.0180735C30.6997 0.0119068 30.7055 0.00707623 30.7122 0.00389011C30.7189 0.000806781 30.7263 -0.000528866 30.7337 0.000190579C30.7411 0.0010128 30.7481 0.0036846 30.754 0.00810404C30.76 0.0125235 30.7646 0.0184854 30.7674 0.0252687C30.9952 0.594658 31.2374 1.19385 31.5842 1.70055C31.9282 2.20282 32.285 2.71835 32.6543 3.24735C33.2012 4.03052 33.6475 4.85654 33.9913 5.72532C34.217 6.29471 34.3565 6.95044 34.4386 7.55991C34.5002 8.01521 34.4797 8.51369 34.3914 8.97516C34.2745 9.59183 34.1144 10.1872 33.9112 10.7614C33.704 11.3504 33.4074 11.8838 33.0873 12.4223C33.0678 12.4542 33.0586 12.4907 33.0586 12.5278C33.0586 12.565 33.0689 12.6014 33.0884 12.633C33.2854 12.9524 33.5224 13.2319 33.7984 13.4717C33.8322 13.5005 33.862 13.4977 33.8897 13.4635C34.8675 12.2425 35.4944 10.8827 35.7715 9.38421C35.9007 8.68019 35.8741 7.96794 35.8895 7.26185C35.8895 7.24901 35.8925 7.23647 35.8987 7.22516C35.9048 7.21375 35.913 7.20399 35.9233 7.19649C35.9336 7.18898 35.9459 7.18405 35.9582 7.18199C35.9715 7.17994 35.9838 7.18097 35.9962 7.18477C36.0834 7.21077 36.1572 7.25538 36.2188 7.31838C36.6118 7.71993 36.9791 8.1666 37.3187 8.6586C38.2165 9.95432 38.9358 11.3329 39.4765 12.7944C39.9536 14.0804 40.2183 15.4494 40.2727 16.9014C40.2881 17.3207 40.2686 17.7383 40.2132 18.1542Z" fill="url(#paint0_linear_87_1685)" fill-opacity="0.988"/>
<path d="M28.4648 16.6732C28.0387 17.1179 27.6214 17.5479 27.213 17.9631C26.2424 18.9508 25.5088 20.3537 25.32 21.6641C25.1463 22.8728 25.3751 24.0195 26.0064 25.1041C26.0339 25.1511 26.0459 25.2055 26.0408 25.2599C26.0357 25.3144 26.0136 25.3659 25.9777 25.4073L25.557 25.8914C25.5419 25.9085 25.5296 25.9276 25.5201 25.9489C25.4982 25.9969 25.451 26.0353 25.3785 26.064C23.8176 24.9759 22.6649 23.5432 21.9207 21.7659C21.2627 20.1961 20.974 18.5685 21.0547 16.8829C21.3598 16.7328 21.6776 16.7089 22.0079 16.811C22.0476 16.8233 22.0682 16.8503 22.0695 16.8921C22.0702 16.9011 22.0733 16.9096 22.0787 16.9178C22.0856 16.9274 22.0948 16.9325 22.1064 16.9333C22.3855 16.9538 22.6516 16.9726 22.9047 16.9898C23.1653 17.0076 23.4303 17.0141 23.6999 17.0093C24.2519 16.999 24.7913 16.9877 25.3179 16.9754C25.3371 16.9754 25.3477 16.9846 25.3498 17.0031C25.3518 17.0183 25.3593 17.0224 25.3723 17.0155C25.4557 16.9695 25.5468 16.9446 25.6453 16.9405C26.1385 16.9199 26.6036 16.8846 27.0407 16.8346C27.0763 16.8305 27.0909 16.8106 27.0848 16.775C27.0773 16.7298 27.0951 16.7033 27.1381 16.6958C27.3467 16.6596 27.6337 16.6424 27.999 16.6445C28.0325 16.6452 28.0644 16.6524 28.0944 16.666C28.169 16.6996 28.2924 16.702 28.4648 16.6732Z" fill="url(#paint1_linear_87_1685)" fill-opacity="0.988"/>
<path d="M40.2131 18.1544C40.2202 18.3592 40.2038 18.6176 40.1628 18.9293C39.9606 20.4751 39.4835 21.8523 38.6196 23.1524C37.73 24.4927 36.5901 25.589 35.2008 26.4413C35.1752 26.4277 35.1495 26.4201 35.1239 26.4187C35.0839 26.4159 35.0675 26.3951 35.0736 26.356C35.0746 26.3457 35.0757 26.3352 35.0767 26.3242C35.0787 26.292 35.0705 26.2628 35.051 26.2368C34.9618 26.1169 34.969 25.9997 35.0716 25.8853C35.481 25.4297 35.7477 24.9102 35.8729 24.3272C36.0401 23.543 36.1971 22.7691 36.1038 21.9551C35.957 20.669 35.4676 19.5165 34.6355 18.4976C34.7227 18.4907 34.7997 18.4606 34.8684 18.4072C34.8982 18.3839 34.9289 18.3836 34.9597 18.4062C35.009 18.4432 35.0582 18.4719 35.1218 18.4761C35.4286 18.4932 35.7447 18.4651 36.0689 18.3918C36.2218 18.3575 36.3736 18.3448 36.5224 18.3537C36.821 18.3722 37.1247 18.3404 37.4356 18.2582C37.6213 18.2095 37.7957 18.191 37.9599 18.2027C38.1558 18.2163 38.3734 18.2232 38.6104 18.2232C38.8207 18.2232 39.0536 18.2119 39.3112 18.1893C39.5328 18.1695 39.7678 18.1571 40.015 18.1523C40.0284 18.1523 40.0386 18.1574 40.0438 18.1677C40.0509 18.1808 40.0612 18.1839 40.0745 18.177C40.1197 18.1516 40.1659 18.1441 40.2131 18.1544Z" fill="url(#paint2_linear_87_1685)" fill-opacity="0.988"/>
<path d="M15.1509 31.4712C15.2302 31.3047 15.3031 31.1354 15.3695 30.9635C15.5449 30.5092 16.7105 30.6521 17.1168 30.7179C17.5006 30.7795 17.7212 31.1413 17.6996 31.5113C17.6969 31.549 17.7143 31.5685 17.752 31.5699C18.5564 31.6048 19.3372 31.4301 20.1406 31.4373C20.5058 31.4401 20.8496 31.4212 21.1717 31.3808C21.9279 31.2852 22.6903 31.2975 23.465 31.2821C23.5036 31.2808 23.5419 31.2866 23.5778 31.2996C23.7509 31.3605 23.8371 31.4373 23.8364 31.5298C23.8343 31.6271 23.7851 31.6791 23.6886 31.686C23.3302 31.7107 22.9424 31.7525 22.5251 31.8114C22.165 31.8628 21.7987 31.8351 21.4395 31.8885C20.7018 32.0005 19.9661 31.982 19.2182 32.0725C18.7393 32.1293 18.254 32.1475 17.7622 32.1269C17.6908 32.1238 17.6199 32.1404 17.5573 32.175C17.4947 32.2097 17.4427 32.261 17.4072 32.3232L17.3282 32.462C17.2509 32.5984 17.2899 32.6744 17.4452 32.6902C17.6822 32.7138 17.9654 32.6562 18.1695 32.7878C18.4538 32.9697 18.3871 33.4086 18.3922 33.6994C18.3935 33.7488 18.4186 33.7737 18.4671 33.7745C20.4987 33.8005 22.4707 33.7779 24.3833 33.7066C24.6377 33.6964 24.9958 34.0992 25.1641 34.2688C25.9678 35.0815 26.748 35.7598 27.5045 36.3038C27.6286 36.3932 27.7774 36.3552 27.8882 36.2699C28.8199 35.5536 29.7782 35.1054 30.9838 35.1579C32.0899 35.2051 32.8009 35.6389 33.634 36.2946C33.6812 36.3315 33.7387 36.3517 33.7982 36.3522C33.8587 36.3529 33.9162 36.3336 33.9644 36.2977C34.9269 35.5734 35.8308 34.7804 36.6763 33.9184C36.7604 33.832 36.8989 33.7858 37.0179 33.7796C37.9537 33.7296 38.6791 33.7135 39.1931 33.7313C40.647 33.7814 42.0301 33.8077 43.3435 33.8104C43.3589 33.8103 43.3732 33.8072 43.3876 33.801C43.4009 33.7947 43.4143 33.7858 43.4235 33.7746C43.4338 33.7633 43.442 33.7501 43.4461 33.7357C43.4512 33.7213 43.4533 33.7062 43.4512 33.6912C43.4256 33.4432 43.4379 33.1945 43.4902 32.9451C43.5046 32.8769 43.5415 32.8158 43.5959 32.772C43.6492 32.7281 43.717 32.7043 43.7857 32.7046C43.9252 32.7046 44.0679 32.6909 44.2146 32.6634C44.3757 32.6333 44.4136 32.5483 44.3285 32.4086L44.2782 32.3263C44.1982 32.1941 44.0812 32.1297 43.9263 32.1331C43.3394 32.1462 42.7627 32.1246 42.1964 32.0684C41.4822 31.9974 40.7733 31.9861 40.0704 31.9029C39.3553 31.8176 38.5457 31.8772 37.8131 31.6953C37.6972 31.6665 37.6633 31.5938 37.7115 31.4774C37.73 31.4319 37.7618 31.3926 37.8018 31.364C37.8418 31.3354 37.889 31.3188 37.9383 31.316C38.1086 31.3071 38.2851 31.3112 38.4688 31.3284C39.0505 31.3825 39.9555 31.4242 41.1857 31.4537C41.9932 31.4733 42.9084 31.6089 43.8185 31.5678C43.8585 31.5658 43.8904 31.5476 43.9129 31.5134C44.0166 31.353 44.0915 31.1845 44.1376 31.0077C44.1612 30.9159 44.2084 30.8364 44.2792 30.7692C44.3049 30.7446 44.3346 30.7302 44.3705 30.7261C44.8497 30.6699 45.373 30.675 45.9383 30.7415C46.319 30.7867 46.4585 31.205 46.5396 31.5154C46.5478 31.5455 46.5663 31.5558 46.596 31.5462C46.8002 31.4832 46.9223 31.3705 46.9634 31.2081C46.9736 31.1698 46.9982 31.1498 47.0382 31.1485C48.0233 31.1064 48.9631 31.021 49.9522 31.0128C50.4765 31.008 50.9936 30.9868 51.5026 30.9491C52.5635 30.871 53.6449 30.9008 54.7336 30.8206C56.3773 30.7004 58.0261 30.7507 59.6719 30.6439C60.1962 30.6102 60.7092 30.5942 61.2089 30.5955C61.2243 30.5957 61.2387 30.5988 61.253 30.6048C61.2664 30.6109 61.2787 30.6195 61.29 30.6305C61.3002 30.6414 61.3084 30.6543 61.3136 30.6684C61.3187 30.6826 61.3218 30.6976 61.3208 30.7127C61.2818 31.7662 60.0987 31.6716 59.3897 31.7785C58.9434 31.8464 58.492 31.8505 58.0415 31.9039C57.7973 31.9334 57.5439 31.9615 57.2812 31.9882C55.7617 32.1431 54.12 32.3174 52.3552 32.5113C51.8678 32.5648 51.442 32.6411 51.0788 32.7405C50.6828 32.8487 50.2734 32.954 49.8506 33.056C49.0472 33.2513 48.5476 32.9379 47.9401 32.5021C47.502 32.1886 46.911 32.1012 46.3857 32.1403C46.2297 32.1519 46.1251 32.2315 46.0728 32.3787C46.0625 32.4068 46.0594 32.436 46.0635 32.4661C46.083 32.6004 46.16 32.6696 46.2954 32.6737L47.066 32.7004C47.0957 32.7013 47.1234 32.7136 47.1429 32.7347C47.1634 32.7558 47.1747 32.7841 47.1747 32.8135C47.1716 33.7467 47.1696 34.7269 47.1665 35.754C47.1655 35.9752 47.1152 36.1689 47.0147 36.3347C46.8402 36.6238 46.5324 36.7995 46.0922 36.8619C45.5638 36.9366 45.0744 36.9462 44.624 36.8907C44.309 36.8516 44.0176 36.7033 43.7519 36.4457C43.5764 36.2751 43.4964 36.0479 43.4748 35.8115C43.4738 35.7975 43.4666 35.7847 43.4563 35.775C43.4471 35.7654 43.4338 35.7597 43.4194 35.7591C41.6033 35.7043 39.8437 35.6964 38.1414 35.7355C37.9906 35.7389 37.8603 35.7971 37.7485 35.9102C37.0487 36.6221 36.4105 37.2579 35.8339 37.8177C35.6769 37.9699 35.4953 38.1052 35.289 38.2237C35.0808 38.3429 34.8509 38.3419 34.619 38.3697C34.5708 38.3751 34.5483 38.4018 34.5513 38.4498C34.5955 39.3879 34.4344 40.1837 34.0681 40.8374C33.5479 41.7678 32.7445 42.3927 31.6579 42.712C31.4247 42.7812 31.0621 42.8086 30.5703 42.7942C28.9543 42.7459 27.6943 41.6401 27.0694 40.2073C26.9586 39.9538 26.9025 39.6911 26.9012 39.419C26.8998 39.1202 26.8885 38.828 26.8673 38.5423C26.855 38.3676 26.7113 38.2515 26.5349 38.2957C26.4087 38.3275 26.302 38.3008 26.2035 38.2155C25.5037 37.6139 24.8173 36.9726 24.1442 36.2915C23.941 36.0859 23.5593 35.7005 23.2556 35.6964C21.9088 35.6779 20.6016 35.6546 19.3341 35.6265C19.1302 35.6217 18.9237 35.6422 18.7144 35.6882C18.5441 35.7252 18.3837 35.7167 18.2332 35.6625C18.1839 35.6447 18.1549 35.6618 18.146 35.7139C18.0782 36.1312 17.8313 36.4963 17.4052 36.8095C17.1374 37.0068 16.0025 36.9143 15.5932 36.8948C15.3893 36.8845 15.1947 36.8208 15.0093 36.7036C14.6167 36.4536 14.4232 36.0682 14.4286 35.5474C14.4389 34.5682 14.4628 33.6861 14.5004 32.9009C14.5059 32.7782 14.5699 32.7128 14.6923 32.7046C14.9988 32.684 15.2902 32.6405 15.5665 32.574C15.5746 32.572 15.5822 32.5679 15.5883 32.5622C15.5946 32.5565 15.5993 32.5495 15.6021 32.5415C15.6049 32.5337 15.6056 32.5253 15.6041 32.5172C15.6028 32.509 15.5993 32.5014 15.5942 32.4949L15.3551 32.1855C15.3445 32.1717 15.3309 32.1607 15.3153 32.153C15.2996 32.1453 15.2824 32.1413 15.2648 32.1413C14.9385 32.1406 14.5873 32.1722 14.2111 32.2359C13.5565 32.3459 13.1348 33.1331 12.4206 33.1229C11.8573 33.1146 11.3125 32.9594 10.7728 32.8197C10.4732 32.7415 10.1589 32.6833 9.82988 32.6449C9.0426 32.5538 8.24947 32.4644 7.45049 32.3767C7.27535 32.3575 7.07978 32.3301 6.86359 32.2945C6.5763 32.2462 6.28389 32.2657 5.99044 32.2071C5.56053 32.1208 5.11727 32.128 4.67197 32.0684C3.98658 31.9772 3.26014 31.896 2.49266 31.8248C2.07609 31.7864 1.65643 31.7371 1.2337 31.6768C0.713502 31.6038 0.0660736 31.2441 0.000406889 30.6829C-0.000619153 30.6736 0.000304385 30.6641 0.0030747 30.6552C0.00584501 30.6462 0.0104603 30.638 0.0165139 30.6309C0.0225676 30.6239 0.030059 30.6182 0.0383699 30.6143C0.0467835 30.6102 0.0558136 30.6081 0.065048 30.6079C1.08565 30.5791 2.05936 30.5914 2.98619 30.6449C4.62272 30.7384 6.23463 30.7168 7.76343 30.8124C8.36336 30.8507 8.96975 30.8761 9.5826 30.8885C10.3901 30.9049 11.2232 31.0128 12.0328 31.0128C12.7592 31.0121 13.459 31.0296 14.1321 31.0652C14.4666 31.0827 14.7713 31.3633 15.0699 31.501C15.1068 31.5182 15.1338 31.5082 15.1509 31.4712ZM30.713 41.1289C31.2232 41.1379 31.7161 40.9359 32.0833 40.5676C32.4506 40.1993 32.6621 39.6947 32.6713 39.1649C32.6805 38.635 32.4867 38.1234 32.1325 37.7424C31.7783 37.3615 31.2927 37.1425 30.7826 37.1336C30.2724 37.1246 29.7795 37.3266 29.4123 37.6949C29.045 38.0632 28.8335 38.5678 28.8243 39.0976C28.815 39.6275 29.0089 40.1391 29.363 40.5201C29.7172 40.901 30.2029 41.12 30.713 41.1289Z" fill="white"/>
<path d="M232.273 25.3279C232.262 26.0049 231.979 26.65 231.485 27.121C230.99 27.592 230.326 27.8507 229.637 27.8399C228.949 27.829 228.293 27.5498 227.814 27.0634C227.335 26.5771 227.071 25.9235 227.081 25.2465C227.092 24.5695 227.375 23.9244 227.87 23.4534C228.364 22.9823 229.029 22.7237 229.718 22.7345C230.406 22.7452 231.061 23.0246 231.541 23.511C232.02 23.9973 232.283 24.6509 232.273 25.3279ZM231.745 25.2886C231.745 24.7428 231.528 24.2193 231.141 23.8333C230.755 23.4474 230.229 23.2305 229.683 23.2305C229.136 23.2305 228.611 23.4474 228.224 23.8333C227.838 24.2193 227.62 24.7428 227.62 25.2886C227.62 25.8344 227.838 26.3579 228.224 26.7439C228.611 27.1298 229.136 27.3467 229.683 27.3467C230.229 27.3467 230.755 27.1298 231.141 26.7439C231.528 26.3579 231.745 25.8344 231.745 25.2886Z" fill="white"/>
<path d="M72.0487 33.6916C72.0216 33.6916 71.9956 33.7024 71.9764 33.7215C71.9572 33.7407 71.9465 33.7666 71.9465 33.7937L71.9451 41.0123C71.9451 41.1158 71.8936 41.1675 71.7909 41.1675L67.3679 41.1689C67.2203 41.1689 67.1461 41.0958 67.1451 40.9494C67.1143 37.1492 67.1189 33.3788 67.1591 29.6384C67.2011 25.7264 69.7959 23.0797 73.7216 22.9902C74.579 22.9706 75.3962 22.9584 76.1734 22.9538C80.7734 22.9259 85.3282 22.9259 89.8378 22.9538C89.8714 22.954 89.9047 22.9608 89.9358 22.9738C89.9668 22.9868 89.995 23.0058 90.0186 23.0298C90.0423 23.0537 90.0611 23.0819 90.0738 23.1131C90.0864 23.1441 90.0929 23.1775 90.0927 23.2111L90.0717 26.9274C90.0713 26.9865 90.0476 27.043 90.0056 27.0847C89.9636 27.1263 89.9068 27.1497 89.8476 27.1497C84.8599 27.1507 79.8955 27.1511 74.9545 27.1511C73.0617 27.1511 71.7839 27.79 71.9072 29.9697C71.9093 30.0087 71.9264 30.0454 71.9549 30.0721C71.9833 30.0989 72.0209 30.1138 72.0599 30.1138C76.9038 30.0988 81.5656 30.0998 86.0451 30.1166C86.414 30.1175 86.7881 30.1226 87.1674 30.1319C87.2055 30.1326 87.2419 30.1483 87.2687 30.1756C87.2953 30.2027 87.3103 30.2393 87.3103 30.2773L87.3117 33.6217C87.3117 33.6376 87.3054 33.6529 87.294 33.6642C87.2827 33.6755 87.2674 33.6818 87.2514 33.6818L72.0487 33.6916Z" fill="white"/>
<path d="M97.3152 41.0108C97.3152 41.0527 97.2985 41.0928 97.2688 41.1225C97.2391 41.1521 97.1989 41.1688 97.1569 41.1688H92.7015C92.6595 41.1688 92.6193 41.1521 92.5896 41.1225C92.5599 41.0928 92.5432 41.0527 92.5432 41.0108V23.0977C92.5432 23.0557 92.5599 23.0156 92.5896 22.986C92.6193 22.9563 92.6595 22.9397 92.7015 22.9397H97.1569C97.1989 22.9397 97.2391 22.9563 97.2688 22.986C97.2985 23.0156 97.3152 23.0557 97.3152 23.0977V41.0108Z" fill="white"/>
<path d="M118.417 36.1564C120.083 37.7997 121.701 39.389 123.272 40.9241C123.305 40.9559 123.327 40.9931 123.339 41.036C123.344 41.0509 123.344 41.0666 123.342 41.082C123.339 41.0972 123.332 41.1118 123.323 41.1242C123.313 41.1366 123.301 41.1469 123.287 41.1538C123.273 41.1608 123.257 41.1645 123.241 41.1646L117.4 41.1744C117.317 41.1744 117.234 41.1578 117.157 41.1253C117.08 41.0929 117.011 41.0455 116.952 40.9856C115.789 39.8018 114.57 38.5748 113.295 37.3043C112.923 36.9324 112.572 36.4347 111.98 36.4361C110.766 36.4398 109.642 36.4323 108.607 36.4137C108.481 36.4119 108.41 36.3484 108.394 36.2236C108.379 36.1061 108.371 35.9891 108.369 35.8726C108.349 34.7019 108.351 33.5405 108.378 32.3884C108.379 32.284 108.433 32.2314 108.539 32.2304C110.692 32.2211 112.978 32.2197 115.398 32.2262C116.791 32.2304 118.028 31.6181 118.084 30.0773C118.119 29.1331 118.122 28.2038 118.095 27.2894C118.094 27.2529 118.079 27.2182 118.053 27.1928C118.027 27.1672 117.992 27.1528 117.955 27.1524C114.718 27.1374 111.175 27.1472 107.327 27.1817C105.569 27.1971 104.725 28.1437 104.729 29.876C104.741 33.6398 104.742 37.3747 104.734 41.0807C104.734 41.1048 104.724 41.128 104.707 41.145C104.69 41.1621 104.667 41.1716 104.642 41.1716C103.306 41.1632 101.989 41.165 100.693 41.1772C100.481 41.179 100.27 41.1618 100.061 41.1255C100.039 41.1218 100.02 41.1112 100.005 41.0951C99.9903 41.0792 99.9815 41.0589 99.9798 41.0374C99.9658 40.8556 99.9583 40.6832 99.9574 40.5201C99.949 35.689 99.9518 32.0127 99.9658 29.4915C99.9668 29.3069 100.012 28.9178 100.1 28.324C100.668 24.5253 103.877 22.9328 107.408 22.9356C112.572 22.9383 117.666 22.9393 122.688 22.9383C122.717 22.9383 122.746 22.9442 122.773 22.9555C122.8 22.967 122.825 22.9836 122.845 23.0046C122.865 23.0257 122.881 23.0506 122.892 23.0779C122.902 23.1051 122.907 23.1342 122.906 23.1634C122.851 24.8534 122.854 26.5088 122.915 28.1297C122.951 29.0594 122.902 30.1947 122.785 30.9889C122.409 33.5214 120.964 35.1983 118.45 36.0194C118.436 36.0239 118.424 36.0316 118.415 36.0421C118.405 36.0524 118.398 36.0651 118.395 36.079C118.392 36.0927 118.392 36.1071 118.396 36.1206C118.4 36.1342 118.407 36.1465 118.417 36.1564Z" fill="white"/>
<path d="M130.744 36.8738C130.819 36.898 130.894 36.9102 130.971 36.9102C136.959 36.8962 142.878 36.8962 148.728 36.9102C148.786 36.9102 148.815 36.9395 148.815 36.9983L148.816 41.0445C148.816 41.0771 148.803 41.1084 148.78 41.1315C148.757 41.1545 148.725 41.1675 148.693 41.1675H126.052C125.954 41.1675 125.905 41.1186 125.905 41.0207C125.912 37.4946 125.91 33.8916 125.898 30.2117C125.894 29.1565 125.976 28.3167 126.144 27.6922C126.793 25.2762 128.633 23.6208 131.063 23.1328C131.532 23.0387 132.21 22.9884 133.096 22.9818C137.584 22.9455 142.251 22.9333 147.096 22.9455C147.625 22.9465 148.169 22.9581 148.726 22.9804C148.785 22.9832 148.815 23.0144 148.815 23.0741L148.816 27.0239C148.816 27.0576 148.803 27.09 148.779 27.1138C148.756 27.1377 148.723 27.1511 148.69 27.1511C143.836 27.1511 138.817 27.1507 133.634 27.1497C133.092 27.1497 132.59 27.2238 132.128 27.372C130.96 27.7467 130.559 28.8275 130.677 29.9488C130.688 30.0533 130.746 30.1054 130.851 30.1054L148.711 30.1068C148.78 30.1068 148.815 30.1408 148.815 30.2089V33.5644C148.815 33.6353 148.779 33.6707 148.708 33.6707C147.832 33.6669 146.887 33.6669 145.874 33.6707C140.894 33.6912 136.165 33.6972 131.688 33.6889C131.364 33.6889 131.053 33.7088 130.754 33.749C130.7 33.7564 130.673 33.7871 130.673 33.8412L130.674 36.7774C130.674 36.7989 130.681 36.8199 130.693 36.8372C130.706 36.8545 130.724 36.8674 130.744 36.8738Z" fill="white"/>
<path d="M165.766 30.0577C165.789 30.0717 165.813 30.0838 165.839 30.0941C165.86 30.1034 165.883 30.108 165.907 30.108C171.846 30.1034 177.775 30.1038 183.696 30.1094C183.733 30.1094 183.768 30.124 183.794 30.15C183.821 30.176 183.835 30.2111 183.835 30.2479L183.829 33.595C183.829 33.6547 183.8 33.6845 183.741 33.6845L165.949 33.6901C165.781 33.6901 165.697 33.7744 165.697 33.9432L165.698 36.6486C165.698 36.7153 165.725 36.7793 165.773 36.8266C165.82 36.8737 165.885 36.9002 165.952 36.9002L183.727 36.9058C183.756 36.9058 183.784 36.9173 183.804 36.9377C183.825 36.9583 183.836 36.9859 183.836 37.0149L183.835 40.9353C183.835 41.0891 183.758 41.166 183.602 41.166L161.107 41.1688C161.083 41.1688 161.06 41.1642 161.039 41.1551C161.016 41.146 160.997 41.1327 160.98 41.1159C160.963 41.0992 160.95 41.0792 160.94 41.0574C160.932 41.0354 160.928 41.012 160.928 40.9884C160.946 37.6338 160.945 34.1878 160.924 30.6505C160.917 29.4145 160.975 28.503 161.103 27.9157C161.649 25.3879 163.619 23.6402 166.168 23.1383C166.697 23.0338 167.426 22.9779 168.355 22.9705C172.719 22.9351 177.193 22.9271 181.775 22.9467C182.404 22.9495 183.042 22.9645 183.689 22.9915C183.73 22.9933 183.769 23.011 183.797 23.041C183.826 23.0709 183.842 23.1107 183.842 23.1523L183.833 27.0643C183.833 27.0833 183.826 27.1016 183.812 27.1152C183.8 27.1287 183.782 27.1366 183.762 27.137C181.312 27.1751 178.818 27.1901 176.282 27.1817C175.993 27.1807 175.723 27.1785 175.471 27.1747C173.292 27.1421 171.085 27.1314 168.851 27.1426C168.31 27.1454 167.785 27.212 167.275 27.3425C165.972 27.6753 165.619 28.742 165.703 29.9542C165.705 30 165.726 30.0343 165.766 30.0577Z" fill="white"/>
<path d="M197.5 29.9669C197.514 29.9707 197.529 29.9705 197.543 29.9663C197.557 29.9621 197.57 29.9542 197.579 29.9431C199.628 27.6903 201.694 25.4267 203.78 23.1523C203.902 23.0209 204.075 22.9398 204.258 22.9384C206.161 22.9356 207.898 22.9366 209.47 22.9412C209.484 22.9412 209.498 22.9444 209.511 22.9507C209.523 22.9569 209.535 22.966 209.544 22.9771C209.553 22.9883 209.558 23.0013 209.561 23.0152C209.565 23.0292 209.564 23.0434 209.561 23.0573C209.557 23.0758 209.547 23.0926 209.533 23.1076C206.385 26.5414 203.226 29.9921 200.058 33.4595C199.97 33.5566 199.921 33.6828 199.921 33.8132L199.919 41.0179C199.919 41.0572 199.904 41.0949 199.876 41.1227C199.849 41.1504 199.811 41.1661 199.772 41.1661L195.261 41.1675C195.186 41.1684 195.149 41.1315 195.15 41.057C195.16 39.0371 195.157 37.0503 195.144 35.0967C195.14 34.4098 195.135 34.0387 195.126 33.9838C195.055 33.4916 194.776 33.2414 194.441 32.8751C191.486 29.6388 188.505 26.3863 185.497 23.1174C185.424 23.0373 185.441 22.9855 185.546 22.9622C185.603 22.9492 185.661 22.9426 185.72 22.9426C187.276 22.938 188.959 22.936 190.766 22.937C190.961 22.937 191.128 23.0129 191.266 23.1649C193.337 25.4327 195.395 27.6879 197.441 29.9306C197.456 29.9483 197.476 29.9603 197.5 29.9669Z" fill="white"/>
<path d="M216.881 36.9016L225.646 36.9072C225.737 36.9072 225.782 36.9524 225.781 37.0428L225.739 41.0513C225.737 41.1286 225.698 41.1674 225.621 41.1674H212.079C212.049 41.1674 212.021 41.1558 212 41.1351C211.979 41.1142 211.968 41.0863 211.968 41.0569C211.961 37.1579 211.964 33.258 211.974 29.3572C211.983 26.0548 214.124 23.7227 217.27 23.1298C217.882 23.0152 218.627 22.9603 219.507 22.9649C221.537 22.9761 223.557 22.9788 225.568 22.9733C225.623 22.9733 225.674 22.9949 225.714 23.0335C225.753 23.072 225.774 23.1243 225.774 23.1788V27.0293C225.774 27.0616 225.761 27.0925 225.739 27.1153C225.716 27.1381 225.686 27.1509 225.653 27.1509C223.641 27.1481 221.649 27.1495 219.678 27.1551C217.857 27.1607 216.493 27.9003 216.75 29.9654C216.754 30.004 216.774 30.0394 216.802 30.0651C216.831 30.0908 216.867 30.1051 216.907 30.1052L225.595 30.1024C225.642 30.1024 225.687 30.1211 225.721 30.1544C225.754 30.1877 225.772 30.2329 225.772 30.28L225.771 33.5712C225.771 33.6016 225.758 33.6308 225.737 33.6523C225.716 33.6738 225.687 33.6859 225.656 33.6859L216.895 33.6929C216.852 33.6929 216.811 33.7099 216.781 33.7404C216.75 33.7707 216.733 33.812 216.733 33.855V36.7548C216.733 36.7937 216.748 36.8311 216.776 36.8585C216.804 36.8861 216.842 36.9016 216.881 36.9016Z" fill="white"/>
<path d="M230.246 25.3585C230.511 25.6353 230.729 25.9783 230.905 26.3875C230.962 26.5227 230.919 26.5916 230.771 26.5944L230.483 26.6C230.406 26.6017 230.329 26.579 230.266 26.5351C230.201 26.4912 230.152 26.4283 230.126 26.3553C230.004 26.0212 229.781 25.4382 229.331 25.5626C229.268 25.5794 229.236 25.6209 229.237 25.687L229.243 26.428C229.244 26.5231 229.197 26.5753 229.101 26.5846L228.8 26.6112C228.632 26.6262 228.548 26.5497 228.548 26.3819L228.545 24.0442C228.545 24.0009 228.562 23.9593 228.593 23.9286C228.624 23.8977 228.664 23.8799 228.708 23.8792C229.09 23.8736 229.474 23.8774 229.859 23.8904C230.675 23.9198 230.966 24.8104 230.259 25.2592C230.214 25.2872 230.21 25.3203 230.246 25.3585ZM229.236 24.514V24.9502C229.236 24.9891 229.251 25.0265 229.279 25.0539C229.306 25.0815 229.344 25.097 229.383 25.097H229.516C229.632 25.0969 229.743 25.0618 229.826 24.9994C229.907 24.9371 229.953 24.8525 229.953 24.7642V24.6999C229.953 24.6562 229.942 24.613 229.92 24.5726C229.899 24.5322 229.866 24.4954 229.826 24.4645C229.785 24.4336 229.736 24.4091 229.683 24.3925C229.631 24.3757 229.574 24.3672 229.516 24.3672H229.383C229.344 24.3672 229.306 24.3827 229.279 24.4102C229.251 24.4376 229.236 24.4751 229.236 24.514Z" fill="white"/>
<defs>
<linearGradient id="paint0_linear_87_1685" x1="30.6598" y1="8.77623e-05" x2="30.6598" y2="26.4412" gradientUnits="userSpaceOnUse">
<stop offset="0.32" stop-color="#FAC110"/>
<stop offset="0.78" stop-color="#EE5D28"/>
<stop offset="1" stop-color="#EC502B"/>
</linearGradient>
<linearGradient id="paint1_linear_87_1685" x1="30.6596" y1="0.000107026" x2="30.6596" y2="26.4412" gradientUnits="userSpaceOnUse">
<stop offset="0.32" stop-color="#FAC110"/>
<stop offset="0.78" stop-color="#EE5D28"/>
<stop offset="1" stop-color="#EC502B"/>
</linearGradient>
<linearGradient id="paint2_linear_87_1685" x1="30.6597" y1="0.000201549" x2="30.6597" y2="26.4413" gradientUnits="userSpaceOnUse">
<stop offset="0.32" stop-color="#FAC110"/>
<stop offset="0.78" stop-color="#EE5D28"/>
<stop offset="1" stop-color="#EC502B"/>
</linearGradient>
</defs>
</svg>
