<svg width="43" height="48" viewBox="0 0 43 48" fill="none" xmlns="http://www.w3.org/2000/svg">
<path d="M20.3351 17.0718L20.1296 18.3347L21.1552 17.7677C21.273 17.7028 21.4053 17.6687 21.5399 17.6687C21.6744 17.6687 21.8067 17.7028 21.9245 17.7677L22.9501 18.3347L22.7447 17.0718C22.7246 16.9488 22.7337 16.8229 22.7712 16.7041C22.8087 16.5853 22.8735 16.4769 22.9605 16.3878L23.869 15.4569L22.6499 15.2705C22.5206 15.2507 22.3982 15.1994 22.2935 15.1211C22.1888 15.0428 22.105 14.9398 22.0495 14.8214L21.5399 13.7361L21.0302 14.8214C20.9747 14.9398 20.8909 15.0428 20.7862 15.1211C20.6815 15.1994 20.5591 15.2507 20.4298 15.2705L19.2107 15.4569L20.1193 16.3878C20.2062 16.4769 20.2711 16.5853 20.3085 16.7041C20.346 16.8229 20.3551 16.9488 20.3351 17.0718Z" fill="black"/>
<path d="M21.5 25.2824C23.2324 25.2824 24.9259 24.7687 26.3664 23.8062C27.8068 22.8438 28.9295 21.4757 29.5925 19.8752C30.2555 18.2747 30.4289 16.5135 30.0909 14.8143C29.753 13.1152 28.9187 11.5545 27.6937 10.3294C26.4687 9.10444 24.908 8.2702 23.2088 7.93223C21.5097 7.59425 19.7485 7.76771 18.148 8.43068C16.5474 9.09365 15.1794 10.2163 14.2169 11.6568C13.2544 13.0972 12.7407 14.7908 12.7407 16.5232C12.7435 18.8454 13.6672 21.0718 15.3093 22.7139C16.9514 24.356 19.1777 25.2797 21.5 25.2824ZM16.7636 14.5324C16.8103 14.3933 16.8944 14.2698 17.0069 14.1755C17.1193 14.0812 17.2555 14.0199 17.4006 13.9981L19.7314 13.6422L20.7833 11.407C20.8476 11.2702 20.9495 11.1545 21.0772 11.0735C21.2048 10.9925 21.3528 10.9494 21.504 10.9494C21.6551 10.9494 21.8032 10.9925 21.9308 11.0735C22.0584 11.1545 22.1603 11.2702 22.2246 11.407L23.2749 13.6438L25.6057 13.9997C25.7504 14.0218 25.8863 14.0833 25.9983 14.1776C26.1104 14.2719 26.1943 14.3952 26.2408 14.534C26.2873 14.6729 26.2946 14.8219 26.2619 14.9646C26.2292 15.1073 26.1579 15.2383 26.0556 15.3431L24.3452 17.0949L24.7505 19.5794C24.7745 19.7269 24.7566 19.8782 24.6987 20.016C24.6408 20.1538 24.5453 20.2725 24.4231 20.3586C24.3009 20.4446 24.1569 20.4946 24.0077 20.5027C23.8584 20.5108 23.7099 20.4767 23.5791 20.4043L21.5 19.2585L19.4248 20.4051C19.294 20.4775 19.1455 20.5115 18.9963 20.5035C18.847 20.4954 18.7031 20.4454 18.5809 20.3594C18.4587 20.2733 18.3632 20.1546 18.3053 20.0168C18.2474 19.879 18.2294 19.7277 18.2535 19.5802L18.6588 17.0957L16.9484 15.3439C16.8457 15.2388 16.7742 15.1074 16.7415 14.9642C16.7089 14.821 16.7166 14.6716 16.7636 14.5324Z" fill="black"/>
<path d="M4.77778 14.8645V18.58H7.70257C8.02246 20.9748 8.96323 23.2442 10.4315 25.163L8.36111 27.2333L10.9889 29.8611L13.0593 27.7907C14.9783 29.2588 17.248 30.1993 19.643 30.5189V33.4444H23.3586V30.5196C25.7531 30.1996 28.0222 29.2589 29.9407 27.7907L32.0111 29.8611L34.6389 27.2333L32.5685 25.163C34.0366 23.2439 34.9771 20.9742 35.2966 18.5792H38.2222V14.8645H35.2974C34.9775 12.4697 34.0368 10.2002 32.5685 8.28148L34.6389 6.21111L32.0111 3.58333L29.9407 5.6537C28.0217 4.18561 25.752 3.24511 23.357 2.92559V0H19.6422V2.9248C17.2475 3.24468 14.978 4.18546 13.0593 5.6537L10.9889 3.58333L8.36111 6.21111L10.4315 8.28148C8.96339 10.2005 8.02288 12.4703 7.70337 14.8653L4.77778 14.8645ZM21.5 6.37037C23.5474 6.37037 25.5488 6.9775 27.2512 8.11497C28.9535 9.25245 30.2804 10.8692 31.0639 12.7607C31.8474 14.6523 32.0524 16.7337 31.6529 18.7418C31.2535 20.7498 30.2676 22.5944 28.8199 24.0421C27.3721 25.4898 25.5276 26.4757 23.5195 26.8752C21.5115 27.2746 19.4301 27.0696 17.5385 26.2861C15.647 25.5026 14.0302 24.1758 12.8927 22.4734C11.7553 20.7711 11.1481 18.7696 11.1481 16.7222C11.1513 13.9777 12.243 11.3465 14.1836 9.40585C16.1243 7.46519 18.7555 6.37353 21.5 6.37037ZM0 35.8333V45.3889H4.77778V45.3722L18.9741 47.6185C21.6252 48.0424 24.3424 47.62 26.7396 46.4113L41.9075 38.6809C42.2288 38.527 42.501 38.287 42.6939 37.9875C42.8868 37.6881 42.9928 37.3409 43 36.9848C42.972 36.6322 42.8569 36.292 42.6652 35.9948C42.4734 35.6975 42.211 35.4525 41.9013 35.2816C41.5916 35.1107 41.2443 35.0192 40.8906 35.0155C40.5369 35.0117 40.1878 35.0957 39.8745 35.26L26.3574 41.6797C25.2452 42.205 24.0303 42.477 22.8004 42.476H22.2963C20.2927 42.4895 18.3553 41.7592 16.8592 40.4264L15.9259 39.5759H22.1745C22.6088 39.5952 23.033 39.4416 23.3543 39.1488C23.6756 38.856 23.8678 38.4478 23.8889 38.0136C23.8738 37.6241 23.7183 37.2533 23.451 36.9696C23.1837 36.6859 22.8227 36.5086 22.4349 36.4704L15.5541 35.5061C14.2206 35.3195 12.8652 35.3605 11.5455 35.6271L6.37037 36.675H4.77778V35.8333H0Z" fill="black"/>
</svg>
