<svg width="36" height="45" viewBox="0 0 36 45" fill="none" xmlns="http://www.w3.org/2000/svg">
<path d="M18 0C13.2261 0 8.64773 1.89642 5.27208 5.27206C1.89642 8.64771 0 13.2261 0 17.9999C0 30.1499 15.8625 43.8749 16.5375 44.4599C16.945 44.8084 17.4637 45 18 45C18.5363 45 19.055 44.8084 19.4625 44.4599C20.25 43.8749 36 30.1499 36 17.9999C36 13.2261 34.1036 8.64771 30.7279 5.27206C27.3523 1.89642 22.7739 0 18 0ZM18 39.7124C13.2075 35.2124 4.5 25.5149 4.5 17.9999C4.5 14.4195 5.92232 10.9858 8.45406 8.45403C10.9858 5.9223 14.4196 4.49999 18 4.49999C21.5804 4.49999 25.0142 5.9223 27.5459 8.45403C30.0777 10.9858 31.5 14.4195 31.5 17.9999C31.5 25.5149 22.7925 35.2349 18 39.7124ZM18 8.99997C16.22 8.99997 14.4799 9.52781 12.9999 10.5167C11.5198 11.5057 10.3663 12.9113 9.68508 14.5558C9.00389 16.2003 8.82566 18.0099 9.17293 19.7557C9.5202 21.5016 10.3774 23.1052 11.636 24.3639C12.8947 25.6226 14.4984 26.4797 16.2442 26.827C17.99 27.1742 19.7996 26.996 21.4442 26.3148C23.0887 25.6336 24.4943 24.4801 25.4832 23.0001C26.4722 21.52 27 19.78 27 17.9999C27 15.613 26.0518 13.3238 24.364 11.636C22.6761 9.94818 20.3869 8.99997 18 8.99997ZM18 22.4999C17.11 22.4999 16.24 22.236 15.4999 21.7415C14.7599 21.2471 14.1831 20.5443 13.8425 19.722C13.5019 18.8997 13.4128 17.995 13.5865 17.122C13.7601 16.2491 14.1887 15.4473 14.818 14.818C15.4474 14.1886 16.2492 13.7601 17.1221 13.5864C17.995 13.4128 18.8998 13.5019 19.7221 13.8425C20.5443 14.1831 21.2471 14.7599 21.7416 15.4999C22.2361 16.2399 22.5 17.1099 22.5 17.9999C22.5 19.1934 22.0259 20.338 21.182 21.1819C20.3381 22.0258 19.1935 22.4999 18 22.4999Z" fill="black"/>
</svg>
